<svg version="1.1" id="Layer_1" xmlns="http://www.w3.org/2000/svg" xmlns:xlink="http://www.w3.org/1999/xlink" x="0px" y="0px"
	 width="100%" viewBox="0 0 1024 1024" enable-background="new 0 0 1024 1024" xml:space="preserve">
<path fill="#000000" opacity="1.000000" stroke="none" 
	d="
M716.079651,550.059326 
	C706.908569,572.440430 680.848206,576.147278 663.043091,566.493408 
	C654.421265,561.818787 647.008911,555.588623 641.103394,547.849792 
	C617.896729,517.439087 586.552490,501.096497 549.450623,495.349487 
	C498.407867,487.443115 448.694763,494.522339 400.077698,510.680573 
	C388.887970,514.399536 378.537109,520.032288 373.349152,531.684570 
	C369.711426,539.855103 369.071503,548.372375 371.604828,556.970825 
	C372.571777,560.252869 372.159637,563.188965 370.798431,566.158875 
	C366.968872,574.514099 370.598145,580.532288 379.724396,580.627808 
	C397.052887,580.809204 414.383484,580.786194 431.712280,580.947388 
	C436.368561,580.990723 441.026825,581.319702 445.674072,581.656982 
	C448.482208,581.860779 450.147186,580.824829 451.693665,578.352112 
	C459.072845,566.553101 471.275360,561.657776 484.298706,564.946167 
	C496.619629,568.057312 505.363525,578.687317 506.032745,592.334595 
	C506.402008,599.864136 503.806122,606.734131 498.689667,612.470276 
	C497.035339,614.324951 495.343445,616.146179 493.784546,617.855713 
	C498.932404,617.855713 504.490051,617.955994 510.043091,617.838013 
	C531.875793,617.374268 553.676392,618.406616 575.430969,619.884460 
	C587.490417,620.703674 599.576904,622.222656 611.292786,625.603271 
	C613.367676,626.201965 615.460327,626.791809 617.454163,627.607239 
	C621.045654,629.076050 624.674316,630.727051 625.230835,635.203857 
	C625.790283,639.704773 622.701355,642.135254 619.472961,644.374939 
	C618.809082,644.835510 618.144470,645.294800 617.290283,645.886108 
	C619.206238,647.159668 621.071533,646.627075 622.805664,646.634644 
	C636.636108,646.695129 650.466980,646.676270 664.297668,646.683960 
	C665.630676,646.684692 666.967346,646.639954 668.295959,646.720703 
	C673.721375,647.050110 677.273132,650.504822 677.318298,655.444702 
	C677.362000,660.216553 674.220947,663.805725 668.754089,663.897339 
	C664.221863,663.973328 662.981201,665.688049 663.280029,669.892334 
	C663.586304,674.203064 663.377441,678.552856 663.338318,682.885010 
	C663.278809,689.480042 660.914001,692.238403 654.479919,692.219055 
	C650.347290,692.206665 648.994385,693.604370 649.034790,697.723633 
	C649.219116,716.551636 649.217773,735.382629 649.106567,754.211487 
	C649.083191,758.167114 650.183777,760.204712 654.477722,759.712097 
	C658.189819,759.286194 660.799927,761.127197 662.824219,764.126526 
	C665.712646,768.406128 668.493652,772.788025 671.729187,776.796326 
	C675.951294,782.026855 677.476135,787.787476 677.154419,794.427673 
	C676.772217,802.315735 674.458679,804.998840 666.609619,805.026428 
	C649.779663,805.085632 632.949463,805.048462 616.119324,805.048462 
	C530.802368,805.048279 445.485413,805.046204 360.168457,805.048218 
	C351.472351,805.048401 349.125702,802.469360 348.687927,793.789246 
	C348.378387,787.652283 349.673157,782.405945 353.645081,777.600464 
	C356.924469,773.632874 359.766998,769.282043 362.571472,764.951111 
	C364.841064,761.446228 367.634155,759.257385 371.997864,759.685059 
	C375.433899,760.021790 376.710968,758.489563 376.694427,755.037659 
	C376.600983,735.541870 376.601410,716.044983 376.713989,696.549316 
	C376.733429,693.181824 375.327972,692.349670 372.234467,692.254089 
	C364.556854,692.016479 362.031250,689.241638 361.899017,681.374817 
	C361.826233,677.043457 361.795807,672.708130 361.898621,668.378235 
	C361.966858,665.506165 360.891388,664.368652 357.892609,664.001892 
	C350.781525,663.132324 349.186676,661.333435 348.735779,654.107971 
	C348.585938,651.706848 347.320160,650.561401 345.618805,649.412720 
	C326.891693,636.768982 316.232880,618.955872 312.396240,596.934570 
	C311.084259,589.403992 310.471436,581.750916 310.697784,574.084839 
	C310.782837,571.204468 310.101196,569.539307 306.927795,568.801147 
	C302.501068,567.771484 299.574921,565.007874 299.663940,559.992554 
	C299.752075,555.028748 302.435150,552.331177 307.152771,551.530518 
	C310.481934,550.965637 310.690460,548.694824 310.679016,545.979309 
	C310.624847,533.126221 312.247284,520.456726 315.095978,507.935333 
	C320.421295,484.528046 334.804199,467.423889 353.773285,453.971924 
	C372.279785,440.847900 393.237427,431.733917 412.369873,419.624054 
	C469.397919,383.528046 512.802490,336.187958 533.904114,270.704193 
	C537.223633,260.402893 539.463684,249.846863 541.687866,239.274231 
	C545.169495,222.724365 561.205627,209.322433 577.555542,209.950073 
	C594.627747,210.605453 609.032104,217.834824 619.214355,231.434647 
	C625.387207,239.679428 632.692444,245.418106 641.949280,249.338379 
	C662.882446,258.203583 678.684387,273.028595 691.137817,291.817719 
	C699.156128,303.915253 702.763062,317.504700 705.203186,331.485565 
	C706.077454,336.494415 708.111572,340.554199 711.548401,344.153229 
	C727.858215,361.232788 737.290344,381.642609 740.028931,404.994751 
	C741.450623,417.117126 739.942444,429.254181 738.064941,441.270264 
	C737.680969,443.727386 738.050842,445.762970 738.921387,447.993927 
	C743.902832,460.759369 747.186890,473.791840 747.479736,487.699036 
	C747.992737,512.061890 738.374756,531.204285 719.546326,546.129333 
	C718.248230,547.158325 716.757690,547.999451 716.079651,550.059326 
M411.018250,459.416443 
	C440.786499,449.152496 469.875854,437.201019 498.416260,423.928375 
	C518.062378,414.791962 537.233643,404.731873 555.534424,393.087280 
	C557.525146,391.820587 560.306763,390.924622 558.616272,387.444092 
	C550.004272,369.712402 550.019409,350.761627 550.844971,331.701416 
	C551.606934,314.108826 550.643066,296.566650 549.316040,277.727905 
	C543.897705,294.924347 537.380432,310.306610 529.077820,324.886322 
	C501.766510,372.846100 462.915527,409.217102 415.904358,437.361969 
	C399.047424,447.453949 381.224335,455.865509 364.859039,466.822052 
	C355.320892,473.207825 347.205353,480.938263 340.995972,490.635834 
	C329.854980,508.035461 327.828430,527.617432 327.255096,547.563110 
	C327.164978,550.697327 328.953796,551.602722 331.670380,551.600769 
	C336.335510,551.597412 341.000702,551.631775 345.665741,551.614868 
	C351.983826,551.591980 352.180359,551.131470 352.713593,544.827759 
	C353.713837,533.002747 356.929565,522.064575 365.324219,513.018494 
	C374.844574,502.759216 386.816559,496.701843 399.834747,492.799713 
	C439.224548,480.992828 479.329437,474.153748 520.689514,475.485168 
	C543.189026,476.209442 564.975708,479.788696 585.982910,487.857758 
	C591.190247,489.857880 596.248169,492.247009 602.498108,494.941681 
	C599.214355,489.842773 596.456543,485.920563 594.067627,481.785248 
	C586.055420,467.915802 582.606934,452.467438 578.633057,437.168152 
	C575.933655,426.775665 572.330505,416.642883 567.186707,406.761078 
	C559.033691,411.426331 551.570801,416.152985 543.721252,420.113281 
	C497.598785,443.383240 450.349518,464.026123 401.314392,480.431793 
	C395.696472,482.311401 391.314423,480.412079 389.525574,475.483459 
	C387.879639,470.948578 390.198181,466.703949 395.647095,464.689026 
	C400.480591,462.901672 405.394165,461.330933 411.018250,459.416443 
M520.500061,692.317627 
	C480.180115,692.314819 439.859924,692.377075 399.540558,692.222107 
	C394.794067,692.203857 393.185638,693.576416 393.251068,698.446411 
	C393.499542,716.936890 393.458893,735.433899 393.269775,753.925781 
	C393.226898,758.118530 394.187927,759.775452 398.775940,759.767822 
	C474.583832,759.641602 550.392090,759.649475 626.200012,759.756958 
	C630.538513,759.763123 632.050964,758.431946 632.012817,754.057251 
	C631.854797,735.898499 631.964478,717.737488 631.993713,699.577271 
	C632.005371,692.330444 632.026428,692.323059 624.965698,692.322266 
	C590.477173,692.318604 555.988647,692.319275 520.500061,692.317627 
M694.194519,435.856201 
	C703.039307,437.012024 711.884094,438.167847 720.603821,439.307312 
	C722.474854,436.480560 722.427612,433.622711 722.834412,430.843689 
	C727.139343,401.432373 719.366455,375.905304 698.620850,354.401367 
	C696.063843,351.750916 694.299805,351.391296 691.108704,353.575317 
	C674.628418,364.854492 658.208069,376.236969 641.057800,386.502625 
	C625.460083,395.838959 609.277649,403.981628 592.289246,410.490570 
	C590.096008,411.330872 587.395020,412.149323 588.621704,415.287354 
	C591.998901,423.926605 594.203369,432.931213 596.738892,441.997437 
	C598.650330,441.672516 600.121826,441.476959 601.569153,441.168091 
	C619.145020,437.417267 636.858887,434.788147 654.874146,434.662628 
	C667.687195,434.573334 680.503113,434.459259 694.194519,435.856201 
M684.983582,317.450104 
	C680.936462,303.572601 672.149780,292.686768 662.399048,282.569031 
	C654.223206,274.085571 644.372070,267.873627 633.380249,263.523285 
	C630.286194,262.298767 628.766052,262.458832 628.143005,266.512024 
	C626.959900,274.208923 625.332642,281.887604 623.210083,289.381287 
	C614.272339,320.935150 601.064880,349.808197 571.918457,368.243011 
	C570.217102,369.319061 569.703064,370.530182 570.314758,372.391998 
	C573.115662,380.917358 576.454102,389.198883 580.987793,396.983551 
	C584.303162,396.573242 586.916626,395.082336 589.640198,393.900421 
	C620.044434,380.706116 647.905151,363.092896 675.103943,344.390839 
	C692.252319,332.599457 689.937744,338.614319 685.429810,318.665039 
	C685.393311,318.503296 685.327759,318.348083 684.983582,317.450104 
M637.367981,481.820251 
	C643.168945,483.891418 648.984375,485.908569 654.527771,488.646759 
	C674.509827,498.517151 691.682922,512.036133 706.587524,528.526306 
	C708.210754,530.322205 709.484009,532.940857 712.506775,530.086731 
	C718.879517,524.069641 724.372681,517.464661 727.348267,509.081787 
	C733.197083,492.604187 731.242615,476.351868 725.940125,460.175354 
	C725.215637,457.965179 723.824829,456.863770 721.719360,456.467377 
	C705.038513,453.326965 688.219604,451.218811 671.270325,450.428009 
	C655.265503,449.681244 639.319763,450.828094 623.534180,453.501160 
	C616.419983,454.705841 609.106995,455.337006 602.102783,458.213928 
	C603.600342,464.656189 606.598328,470.027679 609.387146,475.486633 
	C610.382874,477.435760 612.140076,477.579132 614.045227,477.701141 
	C621.695251,478.191071 629.230286,479.392761 637.367981,481.820251 
M457.360443,619.531128 
	C458.424530,619.186951 459.725250,619.188171 460.117706,617.300903 
	C455.562531,613.423401 451.183777,609.006348 449.601410,602.802429 
	C448.673615,599.164795 446.596558,598.325928 443.131012,598.293335 
	C421.654327,598.091980 400.180298,597.624573 378.703766,597.391846 
	C363.571228,597.227844 353.696991,588.302246 352.705536,573.339966 
	C352.503326,570.288147 351.263794,569.267151 348.383545,569.320251 
	C342.722687,569.424622 337.057129,569.436157 331.396545,569.328369 
	C328.338409,569.270142 327.114349,570.661072 327.364868,573.567566 
	C327.635590,576.708435 328.061279,579.839722 328.226135,582.985291 
	C329.044861,598.606812 334.472626,612.371887 344.240784,624.603271 
	C358.346252,642.265869 385.763824,651.741699 406.592896,645.761169 
	C405.814301,645.032471 405.077301,644.378540 404.380157,643.684631 
	C398.847839,638.177856 399.544312,632.544861 406.419495,628.760498 
	C408.871887,627.410645 411.570679,626.393921 414.271423,625.629089 
	C428.095551,621.714417 442.292786,620.304504 457.360443,619.531128 
M566.996704,292.861786 
	C568.065918,311.802277 568.094666,330.767242 567.186279,350.780212 
	C569.565308,349.226898 570.793335,348.657227 571.724182,347.774261 
	C574.617798,345.029510 577.612488,342.347778 580.188782,339.319092 
	C597.849487,318.557190 606.656616,293.918579 611.639099,267.549438 
	C613.537720,257.500946 612.975708,248.428818 604.895630,240.995926 
	C596.418640,233.197922 587.698425,226.210907 575.096191,227.336517 
	C566.751343,228.081879 559.186523,234.718262 560.437622,241.133835 
	C563.714233,257.936676 565.709106,274.878296 566.996704,292.861786 
M441.500122,776.388794 
	C421.841858,776.388611 402.183624,776.386780 382.525360,776.389160 
	C375.237366,776.390076 371.029419,779.879578 369.204254,787.665466 
	C465.244049,787.665466 561.212402,787.665466 657.367920,787.665466 
	C654.226013,779.975647 650.009888,776.078064 640.913696,776.140503 
	C574.778442,776.594666 508.638550,776.387390 441.500122,776.388794 
M478.500000,664.016418 
	C445.579803,664.016418 412.659576,664.016418 379.838226,664.016418 
	C377.752014,674.932983 378.284882,675.640015 388.128113,675.639404 
	C471.563263,675.634094 554.998413,675.628845 638.433533,675.621704 
	C640.098755,675.621582 641.764221,675.614685 643.429077,675.583374 
	C644.860535,675.556458 645.944641,675.099243 646.494690,673.570740 
	C648.626526,667.646423 646.159973,664.049744 639.874329,664.048218 
	C586.416199,664.035400 532.958130,664.025879 478.500000,664.016418 
M657.672546,542.820435 
	C663.239319,548.482605 669.477417,553.141235 677.341309,555.011780 
	C684.557007,556.728149 691.197083,555.752014 696.594604,550.038635 
	C698.785706,547.719299 699.077637,545.628967 696.789001,543.134888 
	C679.169006,523.933472 659.743835,507.269989 634.567566,498.668854 
	C632.607849,497.999359 630.627258,496.729523 627.635376,498.077362 
	C630.828979,502.630432 633.856873,507.088928 637.029602,511.441742 
	C644.279480,521.388245 648.999146,532.981934 657.672546,542.820435 
M530.131592,631.378052 
	C518.323914,630.881836 506.499603,630.554260 494.715729,631.463745 
	C489.736694,631.848083 484.323792,631.431641 479.472595,634.927063 
	C490.229980,640.793335 538.800598,640.236877 544.001099,634.453613 
	C540.023926,631.841980 535.345703,632.409973 530.131592,631.378052 
M471.655151,583.079041 
	C470.502472,584.009094 469.177979,584.791321 468.227539,585.895447 
	C464.558563,590.157715 464.651672,596.104675 468.317078,600.447937 
	C471.985138,604.794312 477.106110,605.696838 482.146118,602.885132 
	C487.229858,600.049072 489.307068,594.182251 487.150696,588.750671 
	C484.917999,583.126831 479.100098,580.776428 471.655151,583.079041 
z"/>
</svg>